<svg xmlns="http://www.w3.org/2000/svg" xmlns:xlink="http://www.w3.org/1999/xlink" viewBox="0,0,256,256" width="32px" height="32px" fill-rule="nonzero"><g fill="#8d6c9f" fill-rule="nonzero" stroke="none" stroke-width="1" stroke-linecap="butt" stroke-linejoin="miter" stroke-miterlimit="10" stroke-dasharray="" stroke-dashoffset="0" font-family="none" font-weight="none" font-size="none" text-anchor="none" style="mix-blend-mode: normal"><g transform="scale(4,4)"><path d="M13,6c-3.85937,0 -7,3.14063 -7,7v38c0,3.85938 3.14063,7 7,7h38c3.85938,0 7,-3.14062 7,-7v-38c0,-3.85937 -3.14062,-7 -7,-7zM13,8h38c2.76172,0 5,2.23828 5,5v38c0,2.76172 -2.23828,5 -5,5h-11.10156v-13.02734h5.91016c0.48828,0 0.90625,-0.35156 0.98828,-0.83594l1.13672,-6.95312c0.09766,-0.60937 -0.37109,-1.16406 -0.98828,-1.16406h-7.04687v-1.61719c0,-1.89844 0.39453,-2.74609 2.72656,-2.74609h4.65234c0.55078,0 1,-0.44531 1,-1v-7.24219c0,-0.51562 -0.38672,-0.94141 -0.89844,-0.99219c-1.48828,-0.14844 -4.4375,-0.42187 -5.82031,-0.42187c-6.4375,0 -10.59375,4.42969 -10.59375,11.28516v2.73438h-5.96484c-0.55078,0 -1,0.44922 -1,1v6.95313c0,0.55469 0.44922,1 1,1h5.96094v13.02734h-17.96094c-2.76172,0 -5,-2.23828 -5,-5v-38c0,-2.76172 2.23828,-5 5,-5zM12,12c-0.55469,0 -1,0.44922 -1,1v2c0,0.55078 0.44531,1 1,1c0.55469,0 1,-0.44922 1,-1v-2c0,-0.55078 -0.44531,-1 -1,-1zM17,12c-0.55469,0 -1,0.44922 -1,1v2c0,0.55078 0.44531,1 1,1c0.55469,0 1,-0.44922 1,-1v-2c0,-0.55078 -0.44531,-1 -1,-1zM22,12c-0.55469,0 -1,0.44922 -1,1v2c0,0.55078 0.44531,1 1,1c0.55469,0 1,-0.44922 1,-1v-2c0,-0.55078 -0.44531,-1 -1,-1zM27,12c-0.55469,0 -1,0.44922 -1,1v2c0,0.55078 0.44531,1 1,1c0.55469,0 1,-0.44922 1,-1v-2c0,-0.55078 -0.44531,-1 -1,-1zM32,12c-0.55469,0 -1,0.44922 -1,1v2c0,0.55078 0.44531,1 1,1c0.55469,0 1,-0.44922 1,-1v-2c0,-0.55078 -0.44531,-1 -1,-1zM37,12c-0.55469,0 -1,0.44922 -1,1v2c0,0.55078 0.44531,1 1,1c0.55469,0 1,-0.44922 1,-1v-2c0,-0.55078 -0.44531,-1 -1,-1zM42,12c-0.55469,0 -1,0.44922 -1,1v2c0,0.55078 0.44531,1 1,1c0.55469,0 1,-0.44922 1,-1v-2c0,-0.55078 -0.44531,-1 -1,-1zM47,12c-0.55469,0 -1,0.44922 -1,1v2c0,0.55078 0.44531,1 1,1c0.55469,0 1,-0.44922 1,-1v-2c0,-0.55078 -0.44531,-1 -1,-1zM52,12c-0.55469,0 -1,0.44922 -1,1v2c0,0.55078 0.44531,1 1,1c0.55469,0 1,-0.44922 1,-1v-2c0,-0.55078 -0.44531,-1 -1,-1zM41.55859,22c1.53125,0 3.11328,0.08984 4.71875,0.26953v5.38672h-3.64844c-4.23828,0 -4.72656,2.70703 -4.72656,4.74609v3.61719h7.86719l-0.8125,4.95313h-7.05859v15.02734h-4.9375v-15.02734h-6.96094v-4.95312h6.96484v-4.73437c0,-5.8125 3.21094,-9.28516 8.59375,-9.28516z"></path></g></g></svg>